<svg width="104" height="97" viewBox="0 0 104 97" fill="none" xmlns="http://www.w3.org/2000/svg">
<path d="M20.332 39H13.34V38.287L15.502 36.585V30.513H6.417V37.252L8.832 38.08L8.372 39H1.38V38.287L3.542 36.585V22.647L1.15 21.842L1.61 20.922H8.602V21.635L6.417 23.337V29.478H15.502V22.647L13.11 21.842L13.57 20.922H20.562V21.635L18.377 23.337V37.252L20.792 38.08L20.332 39ZM35.1923 39H30.8223V36.999L28.2233 39.046C27.9167 39.1687 27.5333 39.23 27.0733 39.23C25.7547 39.23 24.7963 38.9003 24.1983 38.241C23.6157 37.5817 23.3243 36.792 23.3243 35.872C23.3243 35.32 23.5237 34.7757 23.9223 34.239C24.321 33.7023 24.8883 33.1963 25.6243 32.721H30.8223V31.249C30.8223 30.2523 30.554 29.547 30.0173 29.133C29.496 28.719 28.7753 28.512 27.8553 28.512C26.9047 28.512 25.7393 29.087 24.3593 30.237L23.6693 29.363L26.9813 26.741C27.5947 26.6183 28.3307 26.557 29.1893 26.557C30.5847 26.557 31.6657 26.902 32.4323 27.592C33.199 28.2667 33.5823 29.2557 33.5823 30.559V37.275L35.6523 38.08L35.1923 39ZM27.8093 37.275C28.7447 37.275 29.749 36.8457 30.8223 35.987V33.664H26.7513C26.552 33.9093 26.4063 34.1547 26.3143 34.4C26.2377 34.6453 26.1993 34.9137 26.1993 35.205C26.1993 35.7723 26.345 36.263 26.6363 36.677C26.9277 37.0757 27.3187 37.275 27.8093 37.275ZM59.1145 39H54.7445V31.249C54.7445 30.4057 54.6142 29.8153 54.3535 29.478C54.0928 29.1407 53.6252 28.972 52.9505 28.972C52.4752 28.972 52.0075 29.064 51.5475 29.248C51.0875 29.4167 50.5432 29.7617 49.9145 30.283V37.275L51.9845 38.08L51.5245 39H47.1545V31.249C47.1545 30.4057 47.0242 29.8153 46.7635 29.478C46.5028 29.1407 46.0352 28.972 45.3605 28.972C44.8852 28.972 44.4175 29.064 43.9575 29.248C43.4975 29.4167 42.9532 29.7617 42.3245 30.283V37.275L44.3945 38.08L43.9345 39H37.5175V38.287L39.5645 36.677V30.168L37.5175 28.972V28.259L41.4505 26.327L42.1865 29.271L45.2455 26.718C45.5675 26.5953 45.9892 26.534 46.5105 26.534C47.3998 26.534 48.1358 26.7793 48.7185 27.27C49.3012 27.7453 49.6692 28.4047 49.8225 29.248L52.8125 26.741C53.1345 26.6183 53.5562 26.557 54.0775 26.557C55.1202 26.557 55.9482 26.879 56.5615 27.523C57.1748 28.1517 57.4815 29.0103 57.4815 30.099V37.275L59.5745 38.08L59.1145 39ZM70.5929 36.24L71.5819 34.354L72.2719 34.584V39.414L71.0069 39H61.7379V38.126L69.4659 29.547H63.6469L62.7269 31.203L62.0369 30.973V26.373L63.3019 26.787H72.5709V27.661L64.8889 36.24H70.5929ZM87.4365 39H83.0665V36.999L80.4675 39.046C80.1608 39.1687 79.7775 39.23 79.3175 39.23C77.9988 39.23 77.0405 38.9003 76.4425 38.241C75.8598 37.5817 75.5685 36.792 75.5685 35.872C75.5685 35.32 75.7678 34.7757 76.1665 34.239C76.5651 33.7023 77.1325 33.1963 77.8685 32.721H83.0665V31.249C83.0665 30.2523 82.7981 29.547 82.2615 29.133C81.7401 28.719 81.0195 28.512 80.0995 28.512C79.1488 28.512 77.9835 29.087 76.6035 30.237L75.9135 29.363L79.2255 26.741C79.8388 26.6183 80.5748 26.557 81.4335 26.557C82.8288 26.557 83.9098 26.902 84.6765 27.592C85.4431 28.2667 85.8265 29.2557 85.8265 30.559V37.275L87.8965 38.08L87.4365 39ZM80.0535 37.275C80.9888 37.275 81.9931 36.8457 83.0665 35.987V33.664H78.9955C78.7961 33.9093 78.6505 34.1547 78.5585 34.4C78.4818 34.6453 78.4435 34.9137 78.4435 35.205C78.4435 35.7723 78.5891 36.263 78.8805 36.677C79.1718 37.0757 79.5628 37.275 80.0535 37.275Z" fill="white"/>
<path d="M42.608 76.632C41.488 76.632 40.304 76.456 39.056 76.104C37.84 75.784 36.752 75.24 35.792 74.472C34.864 73.704 34.24 72.68 33.92 71.4C33.888 71.24 33.856 71.064 33.824 70.872C33.824 70.68 33.824 70.488 33.824 70.296C33.824 69.304 34.048 68.344 34.496 67.416C34.944 66.488 35.488 65.784 36.128 65.304H36.176C36.24 65.304 36.32 65.384 36.416 65.544C36.544 65.672 36.544 65.768 36.416 65.832C36.096 66.152 35.856 66.52 35.696 66.936C35.568 67.32 35.504 67.736 35.504 68.184C35.504 68.792 35.6 69.416 35.792 70.056C36.016 70.664 36.288 71.192 36.608 71.64C37.408 72.76 38.512 73.656 39.92 74.328C41.36 74.968 42.768 75.288 44.144 75.288C46.032 75.288 47.488 74.728 48.512 73.608C49.568 72.488 50.096 71.112 50.096 69.48C50.096 68.488 49.904 67.496 49.52 66.504C49.008 65.128 48.32 63.784 47.456 62.472C46.624 61.128 45.856 59.816 45.152 58.536C44.544 57.384 44.24 56.216 44.24 55.032C44.24 53.784 44.624 52.584 45.392 51.432C46.16 50.408 47.168 49.592 48.416 48.984C49.696 48.344 50.992 48.024 52.304 48.024C53.2 48.024 54.064 48.184 54.896 48.504C55.728 48.824 56.48 49.352 57.152 50.088C57.344 50.376 57.44 50.744 57.44 51.192C57.44 51.832 57.312 52.328 57.056 52.68C56.768 53.096 56.448 53.64 56.096 54.312C55.744 54.984 55.536 55.448 55.472 55.704C55.408 55.736 55.248 55.8 54.992 55.896C54.768 55.96 54.624 55.944 54.56 55.848C54.688 55.592 54.864 55.128 55.088 54.456C55.312 53.784 55.424 53.176 55.424 52.632C55.424 52.28 55.408 51.896 55.376 51.48C55.376 51.032 55.168 50.648 54.752 50.328C54.368 49.976 53.872 49.672 53.264 49.416C52.656 49.16 51.92 49.032 51.056 49.032C49.296 49.032 47.952 49.544 47.024 50.568C46.096 51.592 45.632 52.712 45.632 53.928C45.632 54.536 45.76 55.144 46.016 55.752C46.496 56.904 47.168 57.992 48.032 59.016C48.896 60.04 49.744 61.096 50.576 62.184C51.44 63.24 52.112 64.392 52.592 65.64C52.912 66.472 53.072 67.32 53.072 68.184C53.072 69.432 52.752 70.568 52.112 71.592C51.504 72.616 50.672 73.512 49.616 74.28C48.592 75.016 47.472 75.592 46.256 76.008C45.04 76.424 43.824 76.632 42.608 76.632ZM57.2083 75.144C56.8883 75.144 56.6163 75.08 56.3923 74.952C56.1683 74.824 56.0563 74.584 56.0563 74.232C56.0563 73.784 56.1683 73.256 56.3923 72.648C56.6483 72.04 56.9203 71.432 57.2083 70.824C57.4963 70.216 57.7363 69.72 57.9283 69.336C58.0883 69.048 58.2963 68.6 58.5523 67.992C58.8403 67.352 59.1283 66.696 59.4163 66.024C59.7363 65.32 59.9923 64.728 60.1843 64.248C60.4083 63.768 60.5203 63.528 60.5203 63.528C60.2323 63.848 59.8483 64.296 59.3683 64.872C58.9203 65.448 58.4243 66.056 57.8803 66.696C57.3683 67.304 56.8883 67.88 56.4403 68.424C56.0243 68.968 55.7203 69.368 55.5283 69.624C55.4323 69.752 55.3523 69.816 55.2883 69.816C55.2243 69.816 55.1923 69.736 55.1923 69.576C55.1923 69.32 55.2723 69.08 55.4323 68.856C55.8163 68.376 56.2803 67.8 56.8242 67.128C57.3683 66.424 57.9123 65.72 58.4563 65.016C59.0323 64.312 59.5283 63.688 59.9443 63.144C59.6883 63.144 59.3523 63.16 58.9363 63.192C58.5523 63.224 58.2003 63.272 57.8803 63.336C57.5603 63.368 57.3843 63.384 57.3523 63.384C57.1923 63.384 57.2083 63.256 57.4003 63C57.5923 62.744 57.8483 62.488 58.1683 62.232C58.4883 61.976 58.7283 61.848 58.8883 61.848C58.9203 61.848 59.1763 61.864 59.6562 61.896C60.1363 61.896 60.4883 61.896 60.7122 61.896C61.3523 61.032 61.9763 60.04 62.5843 58.92C63.2243 57.8 63.8483 56.568 64.4563 55.224C64.7123 55.192 65.1443 55.016 65.7523 54.696C66.3923 54.344 66.8883 53.992 67.2403 53.64C67.4003 53.48 67.5283 53.4 67.6243 53.4C67.8163 53.4 67.8163 53.528 67.6243 53.784C67.4003 54.04 67.0163 54.584 66.4723 55.416C65.9283 56.216 65.3203 57.192 64.6483 58.344C63.9763 59.464 63.3363 60.648 62.7283 61.896H66.6163C66.9683 61.896 67.1443 61.944 67.1443 62.04C67.1443 62.168 66.9043 62.296 66.4243 62.424C65.8803 62.584 65.3043 62.68 64.6963 62.712C64.1203 62.744 63.5763 62.808 63.0643 62.904C62.5843 63 62.2323 63.208 62.0083 63.528C61.8163 63.752 61.5443 64.232 61.1923 64.968C60.8403 65.704 60.4563 66.552 60.0403 67.512C59.6563 68.44 59.3203 69.384 59.0323 70.344C58.7443 71.272 58.5683 72.056 58.5043 72.696V72.888C58.5043 73.144 58.5843 73.352 58.7443 73.512C58.9043 73.672 59.0643 73.752 59.2243 73.752C59.6403 73.752 60.1683 73.496 60.8083 72.984C61.4803 72.472 62.1683 71.864 62.8723 71.16C63.5763 70.424 64.1843 69.752 64.6963 69.144C64.9203 68.888 65.1123 68.648 65.2723 68.424C65.4643 68.2 65.5763 68.056 65.6083 67.992C65.6723 68.12 65.7043 68.216 65.7043 68.28C65.7043 68.472 65.6403 68.68 65.5123 68.904C65.4163 69.128 65.3043 69.32 65.1763 69.48C64.5683 70.28 63.8323 71.128 62.9683 72.024C62.1043 72.888 61.1763 73.624 60.1843 74.232C59.2243 74.84 58.2323 75.144 57.2083 75.144ZM65.5719 75.096C65.0599 75.096 64.5959 75 64.1799 74.808C63.7959 74.584 63.6039 74.12 63.6039 73.416C63.6039 72.296 63.8919 71.176 64.4679 70.056C65.0439 68.904 65.6359 67.896 66.2439 67.032C66.7879 66.296 67.3959 65.608 68.0679 64.968C68.7719 64.296 69.5239 63.72 70.3239 63.24C70.8359 62.92 71.5239 62.584 72.3879 62.232C73.2839 61.848 74.0359 61.656 74.6439 61.656C75.1559 61.656 75.6039 61.8 75.9879 62.088C76.3719 62.344 76.5639 62.824 76.5639 63.528C76.5639 64.616 76.2759 65.736 75.6999 66.888C75.1559 68.008 74.5799 69 73.9719 69.864C73.6839 70.248 73.3959 70.616 73.1079 70.968C72.8199 71.288 72.4999 71.624 72.1479 71.976C73.3319 71.976 74.4199 71.64 75.4119 70.968C76.4039 70.264 77.2679 69.416 78.0039 68.424L78.0999 68.328C78.1959 68.328 78.2439 68.424 78.2439 68.616C78.2439 68.84 78.1799 69.048 78.0519 69.24C77.4119 70.136 76.6119 70.936 75.6519 71.64C74.6919 72.312 73.6039 72.648 72.3879 72.648C72.2599 72.648 72.1319 72.648 72.0039 72.648C71.8759 72.648 71.7479 72.632 71.6199 72.6C69.8279 74.264 67.8119 75.096 65.5719 75.096ZM66.8199 74.28C67.2679 74.28 67.7479 74.12 68.2599 73.8C68.8039 73.48 69.2199 73.176 69.5079 72.888C70.0519 72.344 70.5479 71.768 70.9959 71.16C71.4439 70.52 71.8599 69.88 72.2439 69.24C72.6919 68.472 73.1399 67.56 73.5879 66.504C74.0359 65.448 74.2599 64.456 74.2599 63.528C74.2599 62.792 74.0039 62.424 73.4919 62.424C73.0759 62.424 72.5639 62.6 71.9559 62.952C71.3799 63.304 70.9479 63.624 70.6599 63.912C69.5719 65.032 68.6599 66.248 67.9239 67.56C67.5079 68.296 67.0599 69.16 66.5799 70.152C66.0999 71.144 65.8599 72.056 65.8599 72.888C65.8599 73.016 65.8599 73.144 65.8599 73.272C65.8919 73.368 65.9239 73.48 65.9559 73.608C66.0839 74.056 66.3719 74.28 66.8199 74.28ZM77.795 75.672C77.667 75.672 77.667 75.544 77.795 75.288C77.955 75 78.099 74.68 78.227 74.328C78.387 73.976 78.547 73.592 78.707 73.176C79.027 72.408 79.379 71.544 79.763 70.584C80.147 69.624 80.515 68.696 80.867 67.8C81.219 66.872 81.523 66.088 81.779 65.448C82.067 64.776 82.259 64.344 82.355 64.152C81.907 64.632 81.363 65.24 80.723 65.976C80.115 66.68 79.539 67.368 78.995 68.04C78.451 68.712 78.035 69.24 77.747 69.624C77.651 69.752 77.571 69.816 77.507 69.816C77.443 69.816 77.411 69.736 77.411 69.576C77.411 69.32 77.491 69.08 77.651 68.856C78.259 68.088 78.931 67.224 79.667 66.264C80.435 65.304 81.123 64.424 81.731 63.624C82.339 62.792 82.723 62.248 82.883 61.992C83.235 61.928 83.747 61.832 84.419 61.704C85.123 61.576 85.603 61.4 85.859 61.176C85.955 61.08 86.051 61.032 86.147 61.032C86.211 61.032 86.243 61.096 86.243 61.224C86.275 61.32 86.243 61.432 86.147 61.56C85.955 61.752 85.667 62.168 85.283 62.808C84.931 63.448 84.531 64.184 84.083 65.016C83.635 65.848 83.203 66.648 82.787 67.416C83.107 66.936 83.523 66.376 84.035 65.736C84.579 65.064 85.171 64.424 85.811 63.816C86.451 63.176 87.091 62.648 87.731 62.232C88.403 61.816 89.027 61.608 89.603 61.608C90.019 61.608 90.371 61.704 90.659 61.896C90.947 62.056 91.171 62.36 91.331 62.808C91.427 63.032 91.475 63.288 91.475 63.576C91.475 64.12 91.331 64.648 91.043 65.16C90.787 65.64 90.595 66.008 90.467 66.264C90.435 66.36 90.323 66.456 90.131 66.552C89.939 66.616 89.859 66.584 89.891 66.456C89.923 66.296 89.939 66.136 89.939 65.976C89.971 65.816 89.987 65.64 89.987 65.448C89.987 64.904 89.875 64.408 89.651 63.96C89.459 63.512 89.091 63.288 88.547 63.288C88.035 63.288 87.411 63.608 86.675 64.248C85.939 64.888 85.203 65.624 84.467 66.456C83.539 67.544 82.803 68.584 82.259 69.576C81.715 70.536 81.267 71.48 80.915 72.408C80.723 72.92 80.531 73.432 80.339 73.944C80.147 74.424 80.003 74.808 79.907 75.096C79.491 75.128 79.075 75.224 78.659 75.384C78.243 75.576 77.955 75.672 77.795 75.672ZM93.3211 75.384C92.0091 75.384 91.0971 75.128 90.5851 74.616C90.0731 74.104 89.8171 73.48 89.8171 72.744C89.8171 71.816 90.0571 70.824 90.5371 69.768C91.0491 68.712 91.5291 67.816 91.9771 67.08C92.4891 66.312 93.1771 65.512 94.0411 64.68C94.9051 63.848 95.8491 63.144 96.8731 62.568C97.8971 61.992 98.8891 61.704 99.8491 61.704C100.681 61.704 101.257 61.912 101.577 62.328C101.897 62.712 102.057 63.176 102.057 63.72C102.057 64.712 101.753 65.528 101.145 66.168C100.569 66.808 99.8491 67.336 98.9851 67.752C98.1211 68.136 97.2891 68.456 96.4891 68.712C96.0091 68.84 95.4491 68.968 94.8091 69.096C94.1691 69.224 93.5611 69.288 92.9851 69.288C92.7611 69.864 92.5851 70.424 92.4571 70.968C92.3291 71.512 92.2651 72.008 92.2651 72.456C92.2651 73 92.3931 73.448 92.6491 73.8C92.9371 74.152 93.4011 74.328 94.0411 74.328C94.2971 74.328 94.6011 74.296 94.9531 74.232C95.3051 74.168 95.6891 74.072 96.1051 73.944C97.0651 73.624 98.0091 73.112 98.9371 72.408C99.8651 71.704 100.713 70.952 101.481 70.152C102.281 69.32 102.889 68.632 103.305 68.088C103.401 68.184 103.449 68.296 103.449 68.424C103.449 68.584 103.337 68.84 103.113 69.192C102.473 70.088 101.641 71.016 100.617 71.976C99.5931 72.936 98.4571 73.752 97.2091 74.424C95.9611 75.064 94.6651 75.384 93.3211 75.384ZM93.3691 68.328C93.7851 68.36 94.2491 68.36 94.7611 68.328C95.3051 68.264 95.8331 68.152 96.3451 67.992C97.6571 67.608 98.6011 67 99.1771 66.168C99.7851 65.304 100.089 64.536 100.089 63.864C100.089 63.48 100.009 63.16 99.8491 62.904C99.6891 62.648 99.4331 62.52 99.0811 62.52C98.1531 62.52 97.3211 62.872 96.5851 63.576C95.8491 64.248 95.2091 65.032 94.6651 65.928C94.1211 66.824 93.6891 67.624 93.3691 68.328Z" fill="white"/>
<path d="M1.92167 52.6667V51H27.1783V52.6667H1.92167ZM2.05 76V66H0V64.3333L1.92167 56H27.1783L29.1017 64.3333V66H27.05V76H25.3833V66H17.05V76H2.05ZM3.71667 74.3333H15.3833V66H3.71667V74.3333ZM1.68333 64.3333H27.4167L25.87 57.6667H3.23L1.68333 64.3333Z" fill="white"/>
</svg>
