<svg width="67" height="56" viewBox="0 0 67 56" fill="none" xmlns="http://www.w3.org/2000/svg">
<path d="M14.144 27H9.28V26.504L10.784 25.32V21.096H4.464V25.784L6.144 26.36L5.824 27H0.96V26.504L2.464 25.32V15.624L0.8 15.064L1.12 14.424H5.984V14.92L4.464 16.104V20.376H10.784V15.624L9.12 15.064L9.44 14.424H14.304V14.92L12.784 16.104V25.784L14.464 26.36L14.144 27ZM24.4816 27H21.4416V25.608L19.6336 27.032C19.4203 27.1173 19.1536 27.16 18.8336 27.16C17.9163 27.16 17.2496 26.9307 16.8336 26.472C16.4283 26.0133 16.2256 25.464 16.2256 24.824C16.2256 24.44 16.3643 24.0613 16.6416 23.688C16.919 23.3147 17.3136 22.9627 17.8256 22.632H21.4416V21.608C21.4416 20.9147 21.255 20.424 20.8816 20.136C20.519 19.848 20.0176 19.704 19.3776 19.704C18.7163 19.704 17.9056 20.104 16.9456 20.904L16.4656 20.296L18.7696 18.472C19.1963 18.3867 19.7083 18.344 20.3056 18.344C21.2763 18.344 22.0283 18.584 22.5616 19.064C23.095 19.5333 23.3616 20.2213 23.3616 21.128V25.8L24.8016 26.36L24.4816 27ZM19.3456 25.8C19.9963 25.8 20.695 25.5013 21.4416 24.904V23.288H18.6096C18.471 23.4587 18.3696 23.6293 18.3056 23.8C18.2523 23.9707 18.2256 24.1573 18.2256 24.36C18.2256 24.7547 18.327 25.096 18.5296 25.384C18.7323 25.6613 19.0043 25.8 19.3456 25.8ZM41.1231 27H38.0831V21.608C38.0831 21.0213 37.9925 20.6107 37.8111 20.376C37.6298 20.1413 37.3045 20.024 36.8351 20.024C36.5045 20.024 36.1791 20.088 35.8591 20.216C35.5391 20.3333 35.1605 20.5733 34.7231 20.936V25.8L36.1631 26.36L35.8431 27H32.8031V21.608C32.8031 21.0213 32.7125 20.6107 32.5311 20.376C32.3498 20.1413 32.0245 20.024 31.5551 20.024C31.2245 20.024 30.8991 20.088 30.5791 20.216C30.2591 20.3333 29.8805 20.5733 29.4431 20.936V25.8L30.8831 26.36L30.5631 27H26.0991V26.504L27.5231 25.384V20.856L26.0991 20.024V19.528L28.8351 18.184L29.3471 20.232L31.4751 18.456C31.6991 18.3707 31.9925 18.328 32.3551 18.328C32.9738 18.328 33.4858 18.4987 33.8911 18.84C34.2965 19.1707 34.5525 19.6293 34.6591 20.216L36.7391 18.472C36.9631 18.3867 37.2565 18.344 37.6191 18.344C38.3445 18.344 38.9205 18.568 39.3471 19.016C39.7738 19.4533 39.9871 20.0507 39.9871 20.808V25.8L41.4431 26.36L41.1231 27ZM49.1081 25.08L49.7961 23.768L50.2761 23.928V27.288L49.3961 27H42.9481V26.392L48.3241 20.424H44.2761L43.6361 21.576L43.1561 21.416V18.216L44.0361 18.504H50.4841V19.112L45.1401 25.08H49.1081ZM60.8254 27H57.7854V25.608L55.9774 27.032C55.764 27.1173 55.4974 27.16 55.1774 27.16C54.26 27.16 53.5934 26.9307 53.1774 26.472C52.772 26.0133 52.5694 25.464 52.5694 24.824C52.5694 24.44 52.708 24.0613 52.9854 23.688C53.2627 23.3147 53.6574 22.9627 54.1694 22.632H57.7854V21.608C57.7854 20.9147 57.5987 20.424 57.2254 20.136C56.8627 19.848 56.3614 19.704 55.7214 19.704C55.06 19.704 54.2494 20.104 53.2894 20.904L52.8094 20.296L55.1134 18.472C55.54 18.3867 56.052 18.344 56.6494 18.344C57.62 18.344 58.372 18.584 58.9054 19.064C59.4387 19.5333 59.7054 20.2213 59.7054 21.128V25.8L61.1454 26.36L60.8254 27ZM55.6894 25.8C56.34 25.8 57.0387 25.5013 57.7854 24.904V23.288H54.9534C54.8147 23.4587 54.7134 23.6293 54.6494 23.8C54.596 23.9707 54.5694 24.1573 54.5694 24.36C54.5694 24.7547 54.6707 25.096 54.8734 25.384C55.076 25.6613 55.348 25.8 55.6894 25.8Z" fill="white"/>
<path d="M28.63 51.02C27.93 51.02 27.19 50.91 26.41 50.69C25.65 50.49 24.97 50.15 24.37 49.67C23.79 49.19 23.4 48.55 23.2 47.75C23.18 47.65 23.16 47.54 23.14 47.42C23.14 47.3 23.14 47.18 23.14 47.06C23.14 46.44 23.28 45.84 23.56 45.26C23.84 44.68 24.18 44.24 24.58 43.94H24.61C24.65 43.94 24.7 43.99 24.76 44.09C24.84 44.17 24.84 44.23 24.76 44.27C24.56 44.47 24.41 44.7 24.31 44.96C24.23 45.2 24.19 45.46 24.19 45.74C24.19 46.12 24.25 46.51 24.37 46.91C24.51 47.29 24.68 47.62 24.88 47.9C25.38 48.6 26.07 49.16 26.95 49.58C27.85 49.98 28.73 50.18 29.59 50.18C30.77 50.18 31.68 49.83 32.32 49.13C32.98 48.43 33.31 47.57 33.31 46.55C33.31 45.93 33.19 45.31 32.95 44.69C32.63 43.83 32.2 42.99 31.66 42.17C31.14 41.33 30.66 40.51 30.22 39.71C29.84 38.99 29.65 38.26 29.65 37.52C29.65 36.74 29.89 35.99 30.37 35.27C30.85 34.63 31.48 34.12 32.26 33.74C33.06 33.34 33.87 33.14 34.69 33.14C35.25 33.14 35.79 33.24 36.31 33.44C36.83 33.64 37.3 33.97 37.72 34.43C37.84 34.61 37.9 34.84 37.9 35.12C37.9 35.52 37.82 35.83 37.66 36.05C37.48 36.31 37.28 36.65 37.06 37.07C36.84 37.49 36.71 37.78 36.67 37.94C36.63 37.96 36.53 38 36.37 38.06C36.23 38.1 36.14 38.09 36.1 38.03C36.18 37.87 36.29 37.58 36.43 37.16C36.57 36.74 36.64 36.36 36.64 36.02C36.64 35.8 36.63 35.56 36.61 35.3C36.61 35.02 36.48 34.78 36.22 34.58C35.98 34.36 35.67 34.17 35.29 34.01C34.91 33.85 34.45 33.77 33.91 33.77C32.81 33.77 31.97 34.09 31.39 34.73C30.81 35.37 30.52 36.07 30.52 36.83C30.52 37.21 30.6 37.59 30.76 37.97C31.06 38.69 31.48 39.37 32.02 40.01C32.56 40.65 33.09 41.31 33.61 41.99C34.15 42.65 34.57 43.37 34.87 44.15C35.07 44.67 35.17 45.2 35.17 45.74C35.17 46.52 34.97 47.23 34.57 47.87C34.19 48.51 33.67 49.07 33.01 49.55C32.37 50.01 31.67 50.37 30.91 50.63C30.15 50.89 29.39 51.02 28.63 51.02ZM37.7552 50.09C37.5552 50.09 37.3852 50.05 37.2452 49.97C37.1052 49.89 37.0352 49.74 37.0352 49.52C37.0352 49.24 37.1052 48.91 37.2452 48.53C37.4052 48.15 37.5752 47.77 37.7552 47.39C37.9352 47.01 38.0852 46.7 38.2052 46.46C38.3052 46.28 38.4352 46 38.5952 45.62C38.7752 45.22 38.9552 44.81 39.1352 44.39C39.3352 43.95 39.4952 43.58 39.6152 43.28C39.7552 42.98 39.8252 42.83 39.8252 42.83C39.6452 43.03 39.4052 43.31 39.1052 43.67C38.8252 44.03 38.5152 44.41 38.1752 44.81C37.8552 45.19 37.5552 45.55 37.2752 45.89C37.0152 46.23 36.8252 46.48 36.7052 46.64C36.6452 46.72 36.5952 46.76 36.5552 46.76C36.5152 46.76 36.4952 46.71 36.4952 46.61C36.4952 46.45 36.5452 46.3 36.6452 46.16C36.8852 45.86 37.1752 45.5 37.5152 45.08C37.8552 44.64 38.1952 44.2 38.5352 43.76C38.8952 43.32 39.2052 42.93 39.4652 42.59C39.3052 42.59 39.0952 42.6 38.8352 42.62C38.5952 42.64 38.3752 42.67 38.1752 42.71C37.9752 42.73 37.8652 42.74 37.8452 42.74C37.7452 42.74 37.7552 42.66 37.8752 42.5C37.9952 42.34 38.1552 42.18 38.3552 42.02C38.5552 41.86 38.7052 41.78 38.8052 41.78C38.8252 41.78 38.9852 41.79 39.2852 41.81C39.5852 41.81 39.8052 41.81 39.9452 41.81C40.3452 41.27 40.7352 40.65 41.1152 39.95C41.5152 39.25 41.9052 38.48 42.2852 37.64C42.4452 37.62 42.7152 37.51 43.0952 37.31C43.4952 37.09 43.8052 36.87 44.0252 36.65C44.1252 36.55 44.2052 36.5 44.2652 36.5C44.3852 36.5 44.3852 36.58 44.2652 36.74C44.1252 36.9 43.8852 37.24 43.5452 37.76C43.2052 38.26 42.8252 38.87 42.4052 39.59C41.9852 40.29 41.5852 41.03 41.2052 41.81H43.6352C43.8552 41.81 43.9652 41.84 43.9652 41.9C43.9652 41.98 43.8152 42.06 43.5152 42.14C43.1752 42.24 42.8152 42.3 42.4352 42.32C42.0752 42.34 41.7352 42.38 41.4152 42.44C41.1152 42.5 40.8952 42.63 40.7552 42.83C40.6352 42.97 40.4652 43.27 40.2452 43.73C40.0252 44.19 39.7852 44.72 39.5252 45.32C39.2852 45.9 39.0752 46.49 38.8952 47.09C38.7152 47.67 38.6052 48.16 38.5652 48.56V48.68C38.5652 48.84 38.6152 48.97 38.7152 49.07C38.8152 49.17 38.9152 49.22 39.0152 49.22C39.2752 49.22 39.6052 49.06 40.0052 48.74C40.4252 48.42 40.8552 48.04 41.2952 47.6C41.7352 47.14 42.1152 46.72 42.4352 46.34C42.5752 46.18 42.6952 46.03 42.7952 45.89C42.9152 45.75 42.9852 45.66 43.0052 45.62C43.0452 45.7 43.0652 45.76 43.0652 45.8C43.0652 45.92 43.0252 46.05 42.9452 46.19C42.8852 46.33 42.8152 46.45 42.7352 46.55C42.3552 47.05 41.8952 47.58 41.3552 48.14C40.8152 48.68 40.2352 49.14 39.6152 49.52C39.0152 49.9 38.3952 50.09 37.7552 50.09ZM42.9824 50.06C42.6624 50.06 42.3724 50 42.1124 49.88C41.8724 49.74 41.7524 49.45 41.7524 49.01C41.7524 48.31 41.9324 47.61 42.2924 46.91C42.6524 46.19 43.0224 45.56 43.4024 45.02C43.7424 44.56 44.1224 44.13 44.5424 43.73C44.9824 43.31 45.4524 42.95 45.9524 42.65C46.2724 42.45 46.7024 42.24 47.2424 42.02C47.8024 41.78 48.2724 41.66 48.6524 41.66C48.9724 41.66 49.2524 41.75 49.4924 41.93C49.7324 42.09 49.8524 42.39 49.8524 42.83C49.8524 43.51 49.6724 44.21 49.3124 44.93C48.9724 45.63 48.6124 46.25 48.2324 46.79C48.0524 47.03 47.8724 47.26 47.6924 47.48C47.5124 47.68 47.3124 47.89 47.0924 48.11C47.8324 48.11 48.5124 47.9 49.1324 47.48C49.7524 47.04 50.2924 46.51 50.7524 45.89L50.8124 45.83C50.8724 45.83 50.9024 45.89 50.9024 46.01C50.9024 46.15 50.8624 46.28 50.7824 46.4C50.3824 46.96 49.8824 47.46 49.2824 47.9C48.6824 48.32 48.0024 48.53 47.2424 48.53C47.1624 48.53 47.0824 48.53 47.0024 48.53C46.9224 48.53 46.8424 48.52 46.7624 48.5C45.6424 49.54 44.3824 50.06 42.9824 50.06ZM43.7624 49.55C44.0424 49.55 44.3424 49.45 44.6624 49.25C45.0024 49.05 45.2624 48.86 45.4424 48.68C45.7824 48.34 46.0924 47.98 46.3724 47.6C46.6524 47.2 46.9124 46.8 47.1524 46.4C47.4324 45.92 47.7124 45.35 47.9924 44.69C48.2724 44.03 48.4124 43.41 48.4124 42.83C48.4124 42.37 48.2524 42.14 47.9324 42.14C47.6724 42.14 47.3524 42.25 46.9724 42.47C46.6124 42.69 46.3424 42.89 46.1624 43.07C45.4824 43.77 44.9124 44.53 44.4524 45.35C44.1924 45.81 43.9124 46.35 43.6124 46.97C43.3124 47.59 43.1624 48.16 43.1624 48.68C43.1624 48.76 43.1624 48.84 43.1624 48.92C43.1824 48.98 43.2024 49.05 43.2224 49.13C43.3024 49.41 43.4824 49.55 43.7624 49.55ZM50.6219 50.42C50.5419 50.42 50.5419 50.34 50.6219 50.18C50.7219 50 50.8119 49.8 50.8919 49.58C50.9919 49.36 51.0919 49.12 51.1919 48.86C51.3919 48.38 51.6119 47.84 51.8519 47.24C52.0919 46.64 52.3219 46.06 52.5419 45.5C52.7619 44.92 52.9519 44.43 53.1119 44.03C53.2919 43.61 53.4119 43.34 53.4719 43.22C53.1919 43.52 52.8519 43.9 52.4519 44.36C52.0719 44.8 51.7119 45.23 51.3719 45.65C51.0319 46.07 50.7719 46.4 50.5919 46.64C50.5319 46.72 50.4819 46.76 50.4419 46.76C50.4019 46.76 50.3819 46.71 50.3819 46.61C50.3819 46.45 50.4319 46.3 50.5319 46.16C50.9119 45.68 51.3319 45.14 51.7919 44.54C52.2719 43.94 52.7019 43.39 53.0819 42.89C53.4619 42.37 53.7019 42.03 53.8019 41.87C54.0219 41.83 54.3419 41.77 54.7619 41.69C55.2019 41.61 55.5019 41.5 55.6619 41.36C55.7219 41.3 55.7819 41.27 55.8419 41.27C55.8819 41.27 55.9019 41.31 55.9019 41.39C55.9219 41.45 55.9019 41.52 55.8419 41.6C55.7219 41.72 55.5419 41.98 55.3019 42.38C55.0819 42.78 54.8319 43.24 54.5519 43.76C54.2719 44.28 54.0019 44.78 53.7419 45.26C53.9419 44.96 54.2019 44.61 54.5219 44.21C54.8619 43.79 55.2319 43.39 55.6319 43.01C56.0319 42.61 56.4319 42.28 56.8319 42.02C57.2519 41.76 57.6419 41.63 58.0019 41.63C58.2619 41.63 58.4819 41.69 58.6619 41.81C58.8419 41.91 58.9819 42.1 59.0819 42.38C59.1419 42.52 59.1719 42.68 59.1719 42.86C59.1719 43.2 59.0819 43.53 58.9019 43.85C58.7419 44.15 58.6219 44.38 58.5419 44.54C58.5219 44.6 58.4519 44.66 58.3319 44.72C58.2119 44.76 58.1619 44.74 58.1819 44.66C58.2019 44.56 58.2119 44.46 58.2119 44.36C58.2319 44.26 58.2419 44.15 58.2419 44.03C58.2419 43.69 58.1719 43.38 58.0319 43.1C57.9119 42.82 57.6819 42.68 57.3419 42.68C57.0219 42.68 56.6319 42.88 56.1719 43.28C55.7119 43.68 55.2519 44.14 54.7919 44.66C54.2119 45.34 53.7519 45.99 53.4119 46.61C53.0719 47.21 52.7919 47.8 52.5719 48.38C52.4519 48.7 52.3319 49.02 52.2119 49.34C52.0919 49.64 52.0019 49.88 51.9419 50.06C51.6819 50.08 51.4219 50.14 51.1619 50.24C50.9019 50.36 50.7219 50.42 50.6219 50.42ZM60.3257 50.24C59.5057 50.24 58.9357 50.08 58.6157 49.76C58.2957 49.44 58.1357 49.05 58.1357 48.59C58.1357 48.01 58.2857 47.39 58.5857 46.73C58.9057 46.07 59.2057 45.51 59.4857 45.05C59.8057 44.57 60.2357 44.07 60.7757 43.55C61.3157 43.03 61.9057 42.59 62.5457 42.23C63.1857 41.87 63.8057 41.69 64.4057 41.69C64.9257 41.69 65.2857 41.82 65.4857 42.08C65.6857 42.32 65.7857 42.61 65.7857 42.95C65.7857 43.57 65.5957 44.08 65.2157 44.48C64.8557 44.88 64.4057 45.21 63.8657 45.47C63.3257 45.71 62.8057 45.91 62.3057 46.07C62.0057 46.15 61.6557 46.23 61.2557 46.31C60.8557 46.39 60.4757 46.43 60.1157 46.43C59.9757 46.79 59.8657 47.14 59.7857 47.48C59.7057 47.82 59.6657 48.13 59.6657 48.41C59.6657 48.75 59.7457 49.03 59.9057 49.25C60.0857 49.47 60.3757 49.58 60.7757 49.58C60.9357 49.58 61.1257 49.56 61.3457 49.52C61.5657 49.48 61.8057 49.42 62.0657 49.34C62.6657 49.14 63.2557 48.82 63.8357 48.38C64.4157 47.94 64.9457 47.47 65.4257 46.97C65.9257 46.45 66.3057 46.02 66.5657 45.68C66.6257 45.74 66.6557 45.81 66.6557 45.89C66.6557 45.99 66.5857 46.15 66.4457 46.37C66.0457 46.93 65.5257 47.51 64.8857 48.11C64.2457 48.71 63.5357 49.22 62.7557 49.64C61.9757 50.04 61.1657 50.24 60.3257 50.24ZM60.3557 45.83C60.6157 45.85 60.9057 45.85 61.2257 45.83C61.5657 45.79 61.8957 45.72 62.2157 45.62C63.0357 45.38 63.6257 45 63.9857 44.48C64.3657 43.94 64.5557 43.46 64.5557 43.04C64.5557 42.8 64.5057 42.6 64.4057 42.44C64.3057 42.28 64.1457 42.2 63.9257 42.2C63.3457 42.2 62.8257 42.42 62.3657 42.86C61.9057 43.28 61.5057 43.77 61.1657 44.33C60.8257 44.89 60.5557 45.39 60.3557 45.83Z" fill="white"/>
<path d="M1.12916 36V35H15.9699V36H1.12916ZM1.20457 50V44H0V43L1.12916 38H15.9699L17.1 43V44H15.8945V50H14.9151V44H10.0185V50H1.20457ZM2.1839 49H9.03917V44H2.1839V49ZM0.989119 43H16.1099L15.2011 39H1.89793L0.989119 43Z" fill="white"/>
</svg>
